<svg width="32" height="32" viewBox="0 0 32 32" fill="none" xmlns="http://www.w3.org/2000/svg">
<ellipse cx="16.0006" cy="16.0008" rx="15.9992" ry="15.9993" fill="white"/>
<path d="M31.0845 10.6655H21.2264C21.6547 14.0834 21.6572 17.8494 21.2347 21.2715H31.1055C31.6818 19.6206 31.9985 17.8476 31.9985 16.0004C31.9988 14.1289 31.6747 12.3342 31.0845 10.6655Z" fill="#3757A6"/>
<path d="M21.2277 10.6655H31.0856C31.0841 10.6605 31.0825 10.6562 31.0805 10.6516C29.0329 4.8778 23.7655 0.629808 17.4369 0.065918C19.8862 1.40839 20.6016 5.66172 21.2277 10.6655Z" fill="white"/>
<path d="M17.4377 31.9338C23.7777 31.3689 29.0524 27.1062 31.0921 21.3169C31.0974 21.3015 31.1019 21.2863 31.1075 21.2715H21.2365C20.6153 26.3024 19.8968 30.5857 17.4377 31.9338Z" fill="#E73B36"/>
<path d="M0 16.0004C0 17.8479 0.317309 19.6206 0.89302 21.2715H22.0591C22.482 17.8491 22.479 14.0834 22.0513 10.6655H0.9143C0.324133 12.3342 0 14.1289 0 16.0004Z" fill="#3757A6"/>
<path d="M0.91874 10.6514C0.917254 10.6559 0.9157 10.6602 0.913673 10.6653H22.0507C21.4242 5.6614 19.8852 1.40814 17.4362 0.0656645C16.9625 0.0237122 16.4835 0 15.999 0C9.03881 -6.75561e-05 3.11991 4.44519 0.91874 10.6514Z" fill="white"/>
<path d="M22.0591 21.2715H0.892982C0.898319 21.2864 0.903319 21.3015 0.908385 21.3169C3.10077 27.539 9.02818 32 15.9995 32C16.4841 32 16.9631 31.9762 17.4367 31.9338C19.8961 30.5858 21.4378 26.3025 22.0591 21.2715Z" fill="#E73B36"/>
</svg>
